<svg width="70" height="70" viewBox="0 0 20 20" fill="none" xmlns="http://www.w3.org/2000/svg">
<path d="M10 19C14.9706 19 19 14.9706 19 10C19 5.02944 14.9706 1 10 1C5.02944 1 1 5.02944 1 10C1 14.9706 5.02944 19 10 19Z" stroke="black" stroke-width="2" stroke-linecap="round" stroke-linejoin="round"/>
<path d="M10 11C11.6569 11 13 9.65685 13 8C13 6.34315 11.6569 5 10 5C8.34315 5 7 6.34315 7 8C7 9.65685 8.34315 11 10 11Z" stroke="black" stroke-width="2" stroke-linecap="round" stroke-linejoin="round"/>
<path d="M4.168 16.849C4.41551 16.0252 4.92197 15.3032 5.61225 14.79C6.30252 14.2768 7.13985 13.9997 8 14H12C12.8613 13.9997 13.6996 14.2774 14.3904 14.7918C15.0812 15.3062 15.5875 16.0298 15.834 16.855" stroke="black" stroke-width="2" stroke-linecap="round" stroke-linejoin="round"/>
</svg>
